<svg xmlns="http://www.w3.org/2000/svg" viewBox="0 0 430 430" width="430" height="430" preserveAspectRatio="xMidYMid slice" style="width: 100%; height: 100%; transform: translate3d(0px, 0px, 0px);"><defs><clipPath id="__lottie_element_35"><rect width="430" height="430" x="0" y="0"></rect></clipPath><clipPath id="__lottie_element_38"><path d="M0,0 L430,0 L430,430 L0,430z"></path></clipPath></defs><g clip-path="url(#__lottie_element_35)"><g clip-path="url(#__lottie_element_38)" transform="matrix(1,0,0,1,0,0)" opacity="1" style="display: block;"><g transform="matrix(1,0,0,1,214.46099853515625,285.27508544921875)" opacity="1" style="display: block;"><g opacity="1" transform="matrix(1,0,0,1,0,0)"><path stroke-linecap="round" stroke-linejoin="round" fill-opacity="0" class="primary" stroke="rgb(255,255,255)" stroke-opacity="1" stroke-width="12" d=" M61.540000915527344,-126 C61.540000915527344,-126 101.5191879272461,-76.02983856201172 125.6223373413086,-17.301673889160156 C149.72549438476562,41.42649459838867 140.47625732421875,133.1248779296875 0.46000000834465027,133.1248779296875 C-142.37539672851562,133.1248779296875 -149.39590454101562,42.97182846069336 -125.77462005615234,-17.301673889160156 C-102.15333557128906,-77.57518005371094 -61.540000915527344,-125.48474884033203 -61.540000915527344,-125.48474884033203"></path></g></g><g transform="matrix(1,0,0,0.9590070247650146,213.92098999023438,114.94152069091797)" opacity="1" style="display: block;"><g opacity="1" transform="matrix(1,0,0,1,0,0)"><path stroke-linecap="round" stroke-linejoin="round" fill-opacity="0" class="primary" stroke="rgb(255,255,255)" stroke-opacity="1" stroke-width="12" d=" M-61,46.75 C-62.10462188720703,38.77768325805664 -99.8606948852539,-34.247074127197266 -99.8606948852539,-34.247074127197266 C-99.8606948852539,-34.247074127197266 -72.2664794921875,-20.895374298095703 -50.621849060058594,-20.895374298095703 C-32.177181243896484,-20.895374298095703 -19.839967727661133,-35.05038070678711 0.20249813795089722,-35.05038070678711 C20.244964599609375,-35.05038070678711 27.495771408081055,-20.895374298095703 49.19662857055664,-20.895374298095703 C76.0448226928711,-20.895374298095703 100.97480773925781,-32.57511901855469 100.97480773925781,-32.57511901855469 C100.97480773925781,-32.57511901855469 65.88554382324219,38.64619445800781 63,45.75"></path></g></g><g transform="matrix(1,0,0,1,227.70799255371094,201.7751007080078)" opacity="1" style="display: block;"><g opacity="1" transform="matrix(1,0,0,1,0,0)"><path stroke-linecap="round" stroke-linejoin="round" fill-opacity="0" class="secondary" stroke="rgb(255,69,51)" stroke-opacity="1" stroke-width="12" d=" M52.21200180053711,-42 C52.21200180053711,-42 -77.28800201416016,-42 -77.28800201416016,-42"></path></g><g opacity="1" transform="matrix(0.9874690771102905,0.15781264007091522,-0.15781264007091522,0.9874690771102905,-5.958133697509766,-8.770160675048828)"><path stroke-linecap="round" stroke-linejoin="round" fill-opacity="0" class="secondary" stroke="rgb(255,69,51)" stroke-opacity="1" stroke-width="12" d=" M58.82673263549805,41.82475662231445 C41.02722930908203,6.92888879776001 52.21200180053711,-42 52.21200180053711,-42"></path></g><g opacity="1" transform="matrix(0.978338360786438,0.2070121020078659,-0.2070121020078659,0.978338360786438,-7.542694091796875,-11.723241806030273)"><path stroke-linecap="round" stroke-linejoin="round" fill-opacity="0" class="secondary" stroke="rgb(255,69,51)" stroke-opacity="1" stroke-width="12" d=" M73.56698608398438,12.445822715759277 C85.8039779663086,-23.112592697143555 52.21200180053711,-42 52.21200180053711,-42"></path></g></g><g transform="matrix(1,0,0,1.0286942720413208,213.99899291992188,297.99560546875)" opacity="1" style="display: block;"><g opacity="1" transform="matrix(1,0,0,1,0,0)"><path stroke-linecap="round" stroke-linejoin="round" fill-opacity="0" class="secondary" stroke="rgb(255,69,51)" stroke-opacity="1" stroke-width="12.6" d=" M0.0010000000474974513,-66.71499633789062 C0.0010000000474974513,-66.71499633789062 0.0010000000474974513,-44.8650016784668 0.0010000000474974513,-44.8650016784668 M0.0010000000474974513,44.80500030517578 C0.0010000000474974513,44.80500030517578 0.0010000000474974513,66.71499633789062 0.0010000000474974513,66.71499633789062 M-30.208999633789062,29.135000228881836 C-25.81800079345703,34.65999984741211 -20.093000411987305,38.97600173950195 -13.571999549865723,41.67599868774414 C-7.051000118255615,44.375999450683594 0.05000000074505806,45.369998931884766 7.060999870300293,44.564998626708984 C12.739999771118164,43.97200012207031 18.136999130249023,41.78799819946289 22.631000518798828,38.26499938964844 C24.854999542236328,36.49300003051758 26.679000854492188,34.270999908447266 27.983999252319336,31.743999481201172 C29.288999557495117,29.216999053955078 30.04400062561035,26.444000244140625 30.201000213623047,23.604999542236328 C31.000999450683594,-9.414999961853027 -28.999000549316406,7.244999885559082 -25.589000701904297,-25.084999084472656 C-24.698999404907227,-33.595001220703125 -17.839000701904297,-40.80500030517578 -9.699000358581543,-43.44499969482422 C5.151000022888184,-48.244998931884766 21.881000518798828,-40.29499816894531 29.51099967956543,-27.2450008392334"></path></g></g></g></g></svg>