<svg xmlns="http://www.w3.org/2000/svg" viewBox="0 0 430 430" width="430" height="430" preserveAspectRatio="xMidYMid slice" style="width: 100%; height: 100%; transform: translate3d(0px, 0px, 0px);"><defs><clipPath id="__lottie_element_2"><rect width="430" height="430" x="0" y="0"></rect></clipPath><clipPath id="__lottie_element_5"><path d="M0,0 L430,0 L430,430 L0,430z"></path></clipPath><filter id="__lottie_element_12" filterUnits="objectBoundingBox" x="0%" y="0%" width="100%" height="100%"><feComponentTransfer in="SourceGraphic"><feFuncA type="table" tableValues="1.0 0.0"></feFuncA></feComponentTransfer></filter><mask id="__lottie_element_11" mask-type="alpha"><g filter="url(#__lottie_element_12)"><rect width="430" height="430" x="0" y="0" fill="#ffffff" opacity="0"></rect><g transform="matrix(1.465291142463684,0.2081390917301178,-0.2081390917301178,1.465291142463684,320.8902282714844,318.19219970703125)" opacity="1" style="display: block;"><g opacity="1" transform="matrix(1,0,0,1,0,0)"><path stroke-linecap="round" stroke-linejoin="round" fill-opacity="0" stroke="rgb(255,0,0)" stroke-opacity="1" stroke-width="63" d=" M21.486000061035156,21.427000045776367 C21.486000061035156,21.427000045776367 46.641998291015625,46.152000427246094 46.641998291015625,46.152000427246094"></path></g><g opacity="1" transform="matrix(1,0,0,1,0,0)"><path stroke-linecap="round" stroke-linejoin="round" fill-opacity="0" stroke="rgb(255,0,0)" stroke-opacity="1" stroke-width="24.7" d=" M20.799999237060547,-37.79100036621094 C36.99599838256836,-21.594999313354492 36.99599838256836,4.664999961853027 20.799999237060547,20.861000061035156 C4.604000091552734,37.05699920654297 -21.656999588012695,37.05699920654297 -37.85300064086914,20.861000061035156 C-54.04899978637695,4.664999961853027 -54.04899978637695,-21.594999313354492 -37.85300064086914,-37.79100036621094 C-21.656999588012695,-53.98699951171875 4.604000091552734,-53.98699951171875 20.799999237060547,-37.79100036621094z"></path><path fill="rgb(255,0,0)" fill-opacity="1" d=" M20.799999237060547,-37.79100036621094 C36.99599838256836,-21.594999313354492 36.99599838256836,4.664999961853027 20.799999237060547,20.861000061035156 C4.604000091552734,37.05699920654297 -21.656999588012695,37.05699920654297 -37.85300064086914,20.861000061035156 C-54.04899978637695,4.664999961853027 -54.04899978637695,-21.594999313354492 -37.85300064086914,-37.79100036621094 C-21.656999588012695,-53.98699951171875 4.604000091552734,-53.98699951171875 20.799999237060547,-37.79100036621094z"></path></g></g></g></mask></defs><g clip-path="url(#__lottie_element_2)"><g clip-path="url(#__lottie_element_5)" transform="matrix(1,0,0,1,0,0)" opacity="1" style="display: block;"><g transform="matrix(0.995998740196228,-0.08936715126037598,0.08936715126037598,0.995998740196228,-58.601318359375,-8.261825561523438)" opacity="1" style="display: block;"><g opacity="1" transform="matrix(1,0,0,1,249.43899536132812,220.58200073242188)"><path stroke-linecap="round" stroke-linejoin="round" fill-opacity="0" class="primary" stroke="rgb(255,255,255)" stroke-opacity="1" stroke-width="12" d=" M61.965999603271484,-47.40399932861328 C61.965999603271484,-47.40399932861328 61.965999603271484,-44.26900100708008 61.965999603271484,-44.26900100708008 C61.965999603271484,-44.26900100708008 61.965999603271484,-13.8149995803833 61.965999603271484,-13.8149995803833 C61.965999603271484,19.990999221801758 34.553001403808594,47.40399932861328 0.746999979019165,47.40399932861328 C0.746999979019165,47.40399932861328 -0.746999979019165,47.40399932861328 -0.746999979019165,47.40399932861328 C-34.553001403808594,47.40399932861328 -61.965999603271484,19.990999221801758 -61.965999603271484,-13.8149995803833 C-61.965999603271484,-13.8149995803833 -61.965999603271484,-43.84299850463867 -61.965999603271484,-43.84299850463867"></path></g><g opacity="1" transform="matrix(1,0,0,1,245.9720001220703,128.26400756835938)"><path stroke-linecap="round" stroke-linejoin="round" fill-opacity="0" class="secondary" stroke="rgb(255,69,51)" stroke-opacity="1" stroke-width="12" d=" M65.43299865722656,48.04800033569336 C65.43299865722656,48.04800033569336 68.04900360107422,8.4399995803833 27.444000244140625,-12.734000205993652 C27.444000244140625,-12.734000205993652 15.050999641418457,33.28799819946289 -62.39899826049805,49.32699966430664 C-62.39899826049805,49.32699966430664 -88.9530029296875,-28.865999221801758 -55.792999267578125,-47.85499954223633 C-52.077999114990234,-49.981998443603516 -45.981998443603516,-49.76499938964844 -42.37699890136719,-47.457000732421875 C-37.31700134277344,-44.21799850463867 -32.24100112915039,-38.9379997253418 -29.041000366210938,-36.2130012512207 C-26.61199951171875,-34.14400100708008 -23.5,-33.04199981689453 -20.312999725341797,-33.198001861572266 C-15.920000076293945,-33.41299819946289 -9.836000442504883,-34.67300033569336 -3.8299999237060547,-37.89400100708008 C44.22200012207031,-56.99300003051758 72.99500274658203,-35.01300048828125 72.40899658203125,-6.506999969482422 C71.86399841308594,20.020000457763672 74.89900207519531,42.069000244140625 65.43299865722656,48.04800033569336z"></path></g></g><g mask="url(#__lottie_element_11)" style="display: block;"><g transform="matrix(-1,0,0,1,465,-35)" opacity="1"><g opacity="1" transform="matrix(1,0,0,1,248.75399780273438,284.14599609375)"><path stroke-linecap="round" stroke-linejoin="round" fill-opacity="0" class="primary" stroke="rgb(255,255,255)" stroke-opacity="1" stroke-width="12" d=" M-29.175445556640625,-23.469961166381836 C-29.175445556640625,-23.469961166381836 -29.52446174621582,-3.534461736679077 -29.52446174621582,-3.534461736679077 C-29.833345413208008,13.471332550048828 -16.166772842407227,27.305082321166992 1.2878938913345337,27.651472091674805 C1.2878938913345337,27.651472091674805 3.7775049209594727,27.70068359375 3.7775049209594727,27.70068359375 C21.2321720123291,28.04707145690918 35.63929748535156,14.536299705505371 35.94818115234375,-2.4694952964782715 C35.94818115234375,-2.4694952964782715 36.401832580566406,-18.48141860961914 36.401832580566406,-18.48141860961914"></path></g><g opacity="1" transform="matrix(1,0,0,1,250,349.6310119628906)"><path stroke-linecap="round" stroke-linejoin="round" fill-opacity="0" class="primary" stroke="rgb(255,255,255)" stroke-opacity="1" stroke-width="12" d=" M37.1912727355957,-67.90504455566406 C37.1912727355957,-67.90504455566406 46.143028259277344,-67.2424545288086 46.143028259277344,-67.2424545288086 C87.0356216430664,-66.91995239257812 121.81500244140625,-35.69499969482422 121.81500244140625,7.784999847412109 C121.81500244140625,7.784999847412109 121.81500244140625,39.297000885009766 121.81500244140625,39.297000885009766 C121.81500244140625,47.75600051879883 114.9530029296875,54.617000579833984 106.49400329589844,54.617000579833984 C106.49400329589844,54.617000579833984 87.06400299072266,54.617000579833984 87.06400299072266,54.617000579833984 C48.57699966430664,57.60599899291992 49.06999969482422,71.43199920654297 16.898000717163086,71.43199920654297 C16.898000717163086,71.43199920654297 -16.898000717163086,71.43199920654297 -16.898000717163086,71.43199920654297 C-49.06999969482422,71.43199920654297 -48.57699966430664,57.60599899291992 -87.06400299072266,54.617000579833984 C-87.06400299072266,54.617000579833984 -106.49400329589844,54.617000579833984 -106.49400329589844,54.617000579833984 C-114.9530029296875,54.617000579833984 -121.81500244140625,47.75600051879883 -121.81500244140625,39.297000885009766 C-121.81500244140625,39.297000885009766 -121.81500244140625,7.784999847412109 -121.81500244140625,7.784999847412109 C-121.81500244140625,-35.69499969482422 -83.42218780517578,-69.81361389160156 -39.978023529052734,-68.95146179199219 C-39.978023529052734,-68.95146179199219 -30.76970100402832,-69.01946258544922 -30.76970100402832,-69.01946258544922"></path></g></g></g><g transform="matrix(1.465291142463684,0.2081390917301178,-0.2081390917301178,1.465291142463684,320.8902282714844,318.19219970703125)" opacity="1" style="display: block;"><g opacity="1" transform="matrix(1,0,0,1,0,0)"><path stroke-linecap="round" stroke-linejoin="round" fill-opacity="0" class="secondary" stroke="rgb(255,69,51)" stroke-opacity="1" stroke-width="10" d=" M21.486000061035156,21.427000045776367 C21.486000061035156,21.427000045776367 46.641998291015625,46.152000427246094 46.641998291015625,46.152000427246094"></path></g><g opacity="1" transform="matrix(1,0,0,1,0,0)"><path stroke-linecap="round" stroke-linejoin="round" fill-opacity="0" class="secondary" stroke="rgb(255,69,51)" stroke-opacity="1" stroke-width="7.7" d=" M20.799999237060547,-37.79100036621094 C36.99599838256836,-21.594999313354492 36.99599838256836,4.664999961853027 20.799999237060547,20.861000061035156 C4.604000091552734,37.05699920654297 -21.656999588012695,37.05699920654297 -37.85300064086914,20.861000061035156 C-54.04899978637695,4.664999961853027 -54.04899978637695,-21.594999313354492 -37.85300064086914,-37.79100036621094 C-21.656999588012695,-53.98699951171875 4.604000091552734,-53.98699951171875 20.799999237060547,-37.79100036621094z"></path></g></g></g></g></svg>