<svg xmlns="http://www.w3.org/2000/svg" viewBox="0 0 430 430" width="430" height="430" preserveAspectRatio="xMidYMid slice" style="width: 100%; height: 100%; transform: translate3d(0px, 0px, 0px);"><defs><clipPath id="__lottie_element_22"><rect width="430" height="430" x="0" y="0"></rect></clipPath><clipPath id="__lottie_element_25"><path d="M0,0 L430,0 L430,430 L0,430z"></path></clipPath></defs><g clip-path="url(#__lottie_element_22)"><g clip-path="url(#__lottie_element_25)" transform="matrix(1,0,0,1,0,0)" opacity="1" style="display: block;"><g transform="matrix(1,0,0,1,-35,-21.816818237304688)" opacity="1" style="display: block;"><g opacity="1" transform="matrix(1,0,0,1,250,250)"><path stroke-linecap="round" stroke-linejoin="round" fill-opacity="0" class="primary" stroke="rgb(255,255,255)" stroke-opacity="1" stroke-width="12" d=" M137.71200561523438,160.11900329589844 C137.71200561523438,160.11900329589844 -137.71200561523438,160.11900329589844 -137.71200561523438,160.11900329589844 C-150.08700561523438,160.11900329589844 -160.11900329589844,150.08700561523438 -160.11900329589844,137.71200561523438 C-160.11900329589844,137.71200561523438 -160.11900329589844,-137.71200561523438 -160.11900329589844,-137.71200561523438 C-160.11900329589844,-150.08700561523438 -150.08700561523438,-160.11900329589844 -137.71200561523438,-160.11900329589844 C-137.71200561523438,-160.11900329589844 137.71200561523438,-160.11900329589844 137.71200561523438,-160.11900329589844 C150.08700561523438,-160.11900329589844 160.11900329589844,-150.08700561523438 160.11900329589844,-137.71200561523438 C160.11900329589844,-137.71200561523438 160.11900329589844,137.71200561523438 160.11900329589844,137.71200561523438 C160.11900329589844,150.08700561523438 150.08700561523438,160.11900329589844 137.71200561523438,160.11900329589844z"></path></g><g opacity="1" transform="matrix(1,0,0,1,249,141.25399780273438)"><path stroke-linecap="round" stroke-linejoin="round" fill-opacity="0" class="primary" stroke="rgb(255,255,255)" stroke-opacity="1" stroke-width="12" d=" M159.11900329589844,0 C159.11900329589844,0 -159.11900329589844,0 -159.11900329589844,0"></path></g><g opacity="1" transform="matrix(1,0,0,1,0,0)"><g opacity="1" transform="matrix(1,0,0,1,177.9320068359375,115.56700134277344)"><path stroke-linecap="round" stroke-linejoin="round" fill-opacity="0" class="secondary" stroke="rgb(255,69,51)" stroke-opacity="1" stroke-width="15" d=" M-0.06800000369548798,0 C-0.06800000369548798,0 0.06800000369548798,0 0.06800000369548798,0"></path></g><g opacity="1" transform="matrix(1,0,0,1,121.63600158691406,115.56700134277344)"><path stroke-linecap="round" stroke-linejoin="round" fill-opacity="0" class="secondary" stroke="rgb(255,69,51)" stroke-opacity="1" stroke-width="15" d=" M-0.06800000369548798,0 C-0.06800000369548798,0 0.06800000369548798,0 0.06800000369548798,0"></path></g><g opacity="1" transform="matrix(1,0,0,1,149.78399658203125,115.56700134277344)"><path stroke-linecap="round" stroke-linejoin="round" fill-opacity="0" class="secondary" stroke="rgb(255,69,51)" stroke-opacity="1" stroke-width="15" d=" M-0.06800000369548798,0 C-0.06800000369548798,0 0.06800000369548798,0 0.06800000369548798,0"></path></g></g></g><g transform="matrix(0.7600544691085815,0.6498593688011169,-0.6498593688011169,0.7600544691085815,215.0050048828125,255.36317443847656)" opacity="1" style="display: block;"><g opacity="1" transform="matrix(1,0,0,1,0,0)"><path stroke-linecap="round" stroke-linejoin="round" fill-opacity="0" class="secondary" stroke="rgb(255,69,51)" stroke-opacity="1" stroke-width="12" d=" M61.154998779296875,8.579999923706055 C61.154998779296875,8.579999923706055 71.18499755859375,14.369999885559082 71.18499755859375,14.369999885559082 C76.24500274658203,17.290000915527344 77.9749984741211,23.760000228881836 75.05500030517578,28.81999969482422 C75.05500030517578,28.81999969482422 62.48500061035156,50.599998474121094 62.48500061035156,50.599998474121094 C59.564998626708984,55.65999984741211 53.095001220703125,57.38999938964844 48.03499984741211,54.470001220703125 C48.03499984741211,54.470001220703125 38.005001068115234,48.68000030517578 38.005001068115234,48.68000030517578 C33.51499938964844,52.189998626708984 28.524999618530273,55.099998474121094 23.155000686645508,57.27000045776367 C23.155000686645508,57.27000045776367 23.155000686645508,68.83999633789062 23.155000686645508,68.83999633789062 C23.155000686645508,74.68000030517578 18.415000915527344,79.41999816894531 12.574999809265137,79.41999816894531 C12.574999809265137,79.41999816894531 -12.574999809265137,79.41999816894531 -12.574999809265137,79.41999816894531 C-18.415000915527344,79.41999816894531 -23.155000686645508,74.68000030517578 -23.155000686645508,68.83999633789062 C-23.155000686645508,68.83999633789062 -23.155000686645508,57.27000045776367 -23.155000686645508,57.27000045776367 C-28.524999618530273,55.099998474121094 -33.51499938964844,52.189998626708984 -38.005001068115234,48.68000030517578 C-38.005001068115234,48.68000030517578 -48.03499984741211,54.470001220703125 -48.03499984741211,54.470001220703125 C-53.095001220703125,57.400001525878906 -59.564998626708984,55.65999984741211 -62.48500061035156,50.599998474121094 C-62.48500061035156,50.599998474121094 -75.05500030517578,28.81999969482422 -75.05500030517578,28.81999969482422 C-77.98500061035156,23.760000228881836 -76.24500274658203,17.290000915527344 -71.18499755859375,14.369999885559082 C-71.18499755859375,14.369999885559082 -61.154998779296875,8.579999923706055 -61.154998779296875,8.579999923706055 C-61.54499816894531,5.769999980926514 -61.76499938964844,2.9100000858306885 -61.76499938964844,0 C-61.76499938964844,-2.9100000858306885 -61.54499816894531,-5.78000020980835 -61.154998779296875,-8.579999923706055 C-61.154998779296875,-8.579999923706055 -71.18499755859375,-14.369999885559082 -71.18499755859375,-14.369999885559082 C-76.24500274658203,-17.290000915527344 -77.9749984741211,-23.760000228881836 -75.05500030517578,-28.81999969482422 C-75.05500030517578,-28.81999969482422 -62.48500061035156,-50.599998474121094 -62.48500061035156,-50.599998474121094 C-59.564998626708984,-55.65999984741211 -53.095001220703125,-57.38999938964844 -48.03499984741211,-54.470001220703125 C-48.03499984741211,-54.470001220703125 -38.005001068115234,-48.68000030517578 -38.005001068115234,-48.68000030517578 C-33.51499938964844,-52.189998626708984 -28.524999618530273,-55.099998474121094 -23.155000686645508,-57.27000045776367 C-23.155000686645508,-57.27000045776367 -23.155000686645508,-68.83999633789062 -23.155000686645508,-68.83999633789062 C-23.155000686645508,-74.68000030517578 -18.415000915527344,-79.41999816894531 -12.574999809265137,-79.41999816894531 C-12.574999809265137,-79.41999816894531 12.574999809265137,-79.41999816894531 12.574999809265137,-79.41999816894531 C18.415000915527344,-79.41999816894531 23.155000686645508,-74.68000030517578 23.155000686645508,-68.83999633789062 C23.155000686645508,-68.83999633789062 23.155000686645508,-57.27000045776367 23.155000686645508,-57.27000045776367 C28.524999618530273,-55.099998474121094 33.51499938964844,-52.189998626708984 38.005001068115234,-48.68000030517578 C38.005001068115234,-48.68000030517578 48.03499984741211,-54.470001220703125 48.03499984741211,-54.470001220703125 C53.095001220703125,-57.38999938964844 59.564998626708984,-55.65999984741211 62.48500061035156,-50.599998474121094 C62.48500061035156,-50.599998474121094 75.05500030517578,-28.81999969482422 75.05500030517578,-28.81999969482422 C77.98500061035156,-23.760000228881836 76.24500274658203,-17.290000915527344 71.18499755859375,-14.369999885559082 C71.18499755859375,-14.369999885559082 61.154998779296875,-8.579999923706055 61.154998779296875,-8.579999923706055 C61.54499816894531,-5.769999980926514 61.76499938964844,-2.9100000858306885 61.76499938964844,0 C61.76499938964844,2.9100000858306885 61.54499816894531,5.78000020980835 61.154998779296875,8.579999923706055z M31.594999313354492,0 C31.594999313354492,-17.450000762939453 17.44499969482422,-31.600000381469727 -0.004999999888241291,-31.600000381469727 C-17.454999923706055,-31.600000381469727 -31.604999542236328,-17.450000762939453 -31.604999542236328,0 C-31.604999542236328,17.450000762939453 -17.454999923706055,31.600000381469727 -0.004999999888241291,31.600000381469727 C17.44499969482422,31.600000381469727 31.594999313354492,17.450000762939453 31.594999313354492,0z"></path></g></g></g></g></svg>